<svg width="142" height="42" viewBox="0 0 142 42" fill="none" xmlns="http://www.w3.org/2000/svg">
<path d="M6.62604 29.4809L7.6931 27.4714C7.76538 27.336 7.80294 27.1846 7.80237 27.0309L7.78757 19.1295C7.78643 18.6128 7.36701 18.1945 6.84969 18.1951L4.1863 18.2002C3.66956 18.2013 3.24956 17.783 3.24843 17.2657V17.0074C3.24729 16.77 3.33721 16.5413 3.49883 16.3677L5.35751 14.3719C5.44117 14.2819 5.50662 14.1761 5.54987 14.0611L6.24986 12.1842C6.35571 11.9002 6.31758 11.5821 6.14742 11.3317L3.05721 6.77777C2.79599 6.39306 2.85689 5.87518 3.20005 5.5616L3.4681 5.31632C4.04972 4.78421 4.80947 4.48828 5.59824 4.48657C5.93629 4.486 6.24815 4.66755 6.41433 4.96177L7.76651 7.35029L7.77277 7.3611C7.80863 7.42199 7.87407 7.45899 7.94407 7.45899C8.4409 7.56825 8.74195 7.10558 8.78407 6.59851L8.88878 5.33738C8.92919 4.85251 9.33382 4.47974 9.81983 4.47861L13.4456 4.47178C13.9623 4.47064 14.3823 4.88893 14.3834 5.40624L14.3857 6.7146C14.3869 7.23135 14.8063 7.64963 15.3236 7.64907C15.7038 7.6485 16.0452 7.41801 16.1886 7.06631L17.0121 5.04657C17.1555 4.69486 17.4976 4.46438 17.8772 4.46381C18.5441 4.46267 19.1861 4.72104 19.6658 5.18429L20.0517 5.55705C20.3658 5.86038 20.4284 6.34014 20.2031 6.71403L17.1151 11.8371C17.0406 11.9611 16.9956 12.1 16.9837 12.2446L16.8994 13.2769L13.3682 13.2809C12.8509 13.2815 12.432 13.7014 12.4331 14.2188L12.4815 40.4873C12.4827 41.0086 12.057 41.4303 11.5357 41.4252L0.931617 41.3142C0.419427 41.3091 0.0062599 40.8925 0.0051217 40.3797L0 37.7101C0 37.5052 0.0665851 37.3055 0.190649 37.1427L4.75597 32.8978C4.78557 32.8591 5.17597 32.3623 5.21125 32.3287" fill="#55E6A5"/>
<path d="M13.0888 0.00129664L10.9137 0.00547253C10.5391 0.00619181 10.2359 0.310491 10.2367 0.685142L10.2404 2.63943C10.2411 3.01408 10.5454 3.31721 10.9201 3.31649L13.0952 3.31232C13.4698 3.3116 13.773 3.0073 13.7722 2.63265L13.7685 0.678362C13.7678 0.30371 13.4635 0.000577356 13.0888 0.00129664Z" fill="#55E6A5"/>
<path d="M13.8947 41.4338L13.8452 14.6678L17.471 14.661L17.5199 41.4269L13.8947 41.4338ZM16.3054 31.0169L16.2997 27.8539L23.5888 27.8402C24.5915 27.8385 25.4845 27.6319 26.2687 27.2182C27.0523 26.8056 27.6681 26.2263 28.1171 25.479C28.5656 24.7335 28.7887 23.8457 28.7864 22.8173C28.7847 21.789 28.5576 20.9023 28.1063 20.1568C27.655 19.4124 27.0364 18.8354 26.2522 18.425C25.4668 18.0153 24.5733 17.8104 23.5706 17.8127L16.2804 17.8263L16.2747 14.6638L23.7578 14.6496C25.4031 14.6468 26.8822 14.978 28.1945 15.6438C29.5063 16.3103 30.5432 17.2533 31.3052 18.4734C32.065 19.693 32.4474 21.1391 32.4502 22.8105C32.4531 24.4558 32.0764 25.8962 31.3206 27.1323C30.5643 28.3678 29.5313 29.321 28.2213 29.992C26.9106 30.663 25.4332 30.9999 23.788 31.0027L16.3049 31.0169H16.3054Z" fill="white"/>
<path d="M138.23 33.0937C137.51 33.0937 136.862 32.9683 136.284 32.7175C135.706 32.4668 135.226 32.0961 134.845 31.6055L135.989 30.6243C136.317 31.0059 136.671 31.2839 137.052 31.4583C137.445 31.6219 137.886 31.7036 138.377 31.7036C138.573 31.7036 138.753 31.6818 138.917 31.6382C139.091 31.5837 139.238 31.5074 139.358 31.4093C139.489 31.3111 139.587 31.1967 139.653 31.0658C139.718 30.9241 139.751 30.7715 139.751 30.6079C139.751 30.3245 139.647 30.0955 139.44 29.9211C139.331 29.8448 139.157 29.763 138.917 29.6758C138.688 29.5777 138.388 29.4795 138.017 29.3814C137.385 29.2179 136.867 29.0326 136.464 28.8254C136.06 28.6183 135.75 28.3839 135.532 28.1222C135.368 27.9151 135.248 27.6916 135.172 27.4517C135.095 27.201 135.057 26.9284 135.057 26.634C135.057 26.2743 135.134 25.9472 135.286 25.6528C135.45 25.3476 135.668 25.0859 135.94 24.8679C136.224 24.6389 136.551 24.4645 136.922 24.3446C137.303 24.2246 137.707 24.1647 138.132 24.1647C138.535 24.1647 138.933 24.2192 139.326 24.3282C139.729 24.4372 140.1 24.5953 140.438 24.8025C140.776 25.0096 141.059 25.2549 141.288 25.5384L140.323 26.6013C140.116 26.3942 139.887 26.2143 139.636 26.0617C139.396 25.8981 139.151 25.7728 138.9 25.6855C138.65 25.5983 138.421 25.5547 138.214 25.5547C137.985 25.5547 137.777 25.5765 137.592 25.6201C137.407 25.6637 137.249 25.7292 137.118 25.8164C136.998 25.9036 136.905 26.0126 136.84 26.1434C136.774 26.2743 136.742 26.4215 136.742 26.585C136.753 26.7267 136.785 26.863 136.84 26.9938C136.905 27.1137 136.992 27.2173 137.102 27.3045C137.221 27.3918 137.401 27.4844 137.641 27.5825C137.881 27.6807 138.186 27.7733 138.557 27.8606C139.102 28.0023 139.549 28.1604 139.898 28.3348C140.258 28.4983 140.541 28.6891 140.748 28.9072C140.966 29.1143 141.119 29.3542 141.206 29.6267C141.293 29.8993 141.337 30.2046 141.337 30.5425C141.337 31.0331 141.195 31.4747 140.912 31.8672C140.639 32.2487 140.269 32.5485 139.8 32.7666C139.331 32.9846 138.808 33.0937 138.23 33.0937Z" fill="white"/>
<path d="M130.405 33.0937C129.685 33.0937 129.036 32.9683 128.459 32.7175C127.881 32.4668 127.401 32.0961 127.02 31.6055L128.164 30.6243C128.491 31.0059 128.846 31.2839 129.227 31.4583C129.62 31.6219 130.061 31.7036 130.552 31.7036C130.748 31.7036 130.928 31.6818 131.092 31.6382C131.266 31.5837 131.413 31.5074 131.533 31.4093C131.664 31.3111 131.762 31.1967 131.827 31.0658C131.893 30.9241 131.926 30.7715 131.926 30.6079C131.926 30.3245 131.822 30.0955 131.615 29.9211C131.506 29.8448 131.331 29.763 131.092 29.6758C130.863 29.5777 130.563 29.4795 130.192 29.3814C129.56 29.2179 129.042 29.0326 128.639 28.8254C128.235 28.6183 127.924 28.3839 127.706 28.1222C127.543 27.9151 127.423 27.6916 127.347 27.4517C127.27 27.201 127.232 26.9284 127.232 26.634C127.232 26.2743 127.308 25.9472 127.461 25.6528C127.625 25.3476 127.843 25.0859 128.115 24.8679C128.399 24.6389 128.726 24.4645 129.096 24.3446C129.478 24.2246 129.881 24.1647 130.307 24.1647C130.71 24.1647 131.108 24.2192 131.5 24.3282C131.904 24.4372 132.274 24.5953 132.612 24.8025C132.95 25.0096 133.234 25.2549 133.463 25.5384L132.498 26.6013C132.291 26.3942 132.062 26.2143 131.811 26.0617C131.571 25.8981 131.326 25.7728 131.075 25.6855C130.824 25.5983 130.595 25.5547 130.388 25.5547C130.159 25.5547 129.952 25.5765 129.767 25.6201C129.582 25.6637 129.423 25.7292 129.293 25.8164C129.173 25.9036 129.08 26.0126 129.015 26.1434C128.949 26.2743 128.917 26.4215 128.917 26.585C128.927 26.7267 128.96 26.863 129.015 26.9938C129.08 27.1137 129.167 27.2173 129.276 27.3045C129.396 27.3918 129.576 27.4844 129.816 27.5825C130.056 27.6807 130.361 27.7733 130.732 27.8606C131.277 28.0023 131.724 28.1604 132.073 28.3348C132.433 28.4983 132.716 28.6891 132.923 28.9072C133.141 29.1143 133.294 29.3542 133.381 29.6267C133.468 29.8993 133.512 30.2046 133.512 30.5425C133.512 31.0331 133.37 31.4747 133.087 31.8672C132.814 32.2487 132.443 32.5485 131.975 32.7666C131.506 32.9846 130.983 33.0937 130.405 33.0937Z" fill="white"/>
<path d="M121.967 33.0937C121.084 33.0937 120.299 32.9083 119.613 32.5376C118.937 32.1561 118.402 31.6382 118.01 30.9841C117.628 30.3299 117.438 29.5777 117.438 28.7273C117.438 28.0513 117.547 27.4354 117.765 26.8793C117.983 26.3233 118.282 25.8436 118.664 25.4402C119.056 25.026 119.52 24.7098 120.054 24.4917C120.599 24.2628 121.188 24.1483 121.82 24.1483C122.376 24.1483 122.894 24.2573 123.374 24.4754C123.854 24.6825 124.268 24.9714 124.617 25.3421C124.976 25.7128 125.249 26.1543 125.434 26.6667C125.631 27.1683 125.723 27.7188 125.712 28.3184L125.696 29.038H118.68L118.304 27.697H124.241L123.995 27.975V27.5825C123.963 27.2228 123.843 26.9011 123.635 26.6177C123.428 26.3342 123.167 26.1107 122.85 25.9472C122.534 25.7837 122.191 25.7019 121.82 25.7019C121.232 25.7019 120.735 25.8164 120.332 26.0453C119.929 26.2634 119.623 26.5904 119.416 27.0265C119.209 27.4517 119.106 27.9805 119.106 28.6128C119.106 29.2124 119.231 29.7357 119.482 30.1827C119.732 30.6188 120.087 30.9568 120.545 31.1967C121.003 31.4365 121.531 31.5564 122.131 31.5564C122.556 31.5564 122.949 31.4856 123.308 31.3438C123.679 31.2021 124.077 30.9459 124.502 30.5752L125.353 31.769C125.091 32.0307 124.769 32.2596 124.388 32.4559C124.017 32.6521 123.619 32.8102 123.194 32.9301C122.78 33.0391 122.371 33.0937 121.967 33.0937Z" fill="white"/>
<path d="M108.235 32.9301V20.8286H109.919V26.1107L109.625 26.307C109.734 25.9254 109.947 25.5765 110.263 25.2603C110.579 24.9333 110.955 24.6716 111.391 24.4754C111.827 24.2682 112.274 24.1647 112.732 24.1647C113.386 24.1647 113.931 24.2955 114.367 24.5571C114.804 24.8079 115.131 25.1949 115.349 25.7182C115.567 26.2415 115.676 26.9011 115.676 27.697V32.9301H113.991V27.8115C113.991 27.3209 113.926 26.9175 113.795 26.6013C113.664 26.2743 113.463 26.0399 113.19 25.8981C112.917 25.7455 112.579 25.6801 112.176 25.7019C111.849 25.7019 111.549 25.7564 111.277 25.8654C111.004 25.9635 110.764 26.1053 110.557 26.2906C110.361 26.4759 110.203 26.694 110.083 26.9447C109.974 27.1846 109.919 27.4463 109.919 27.7297V32.9301H109.085C108.944 32.9301 108.802 32.9301 108.66 32.9301C108.518 32.9301 108.377 32.9301 108.235 32.9301Z" fill="white"/>
<path d="M102.205 33.0937C101.409 33.0937 100.679 32.9519 100.014 32.6685C99.3488 32.385 98.771 31.9816 98.2804 31.4583C97.7898 30.9241 97.4082 30.2972 97.1356 29.5777C96.874 28.8581 96.7432 28.0677 96.7432 27.2064C96.7432 26.3887 96.8849 25.631 97.1684 24.9333C97.4627 24.2246 97.8661 23.6032 98.3785 23.069C98.8909 22.5348 99.4851 22.1205 100.161 21.8261C100.837 21.5318 101.567 21.3846 102.352 21.3846C102.908 21.3846 103.448 21.4718 103.971 21.6462C104.506 21.8098 104.985 22.0442 105.41 22.3494C105.847 22.6438 106.201 22.9818 106.473 23.3634L105.296 24.5899C104.98 24.2737 104.658 24.012 104.331 23.8049C104.015 23.5868 103.688 23.4233 103.35 23.3143C103.023 23.2053 102.69 23.1508 102.352 23.1508C101.818 23.1508 101.317 23.2543 100.848 23.4615C100.39 23.6577 99.9866 23.9357 99.6377 24.2955C99.2998 24.6553 99.0326 25.0859 98.8364 25.5874C98.6402 26.078 98.542 26.6177 98.542 27.2064C98.542 27.8278 98.6347 28.3948 98.8201 28.9072C99.0163 29.4087 99.2889 29.8393 99.6377 30.1991C99.9866 30.5589 100.401 30.8369 100.881 31.0331C101.371 31.2185 101.911 31.3111 102.5 31.3111C102.859 31.3111 103.214 31.2621 103.563 31.164C103.911 31.0658 104.239 30.9241 104.544 30.7388C104.849 30.5534 105.127 30.3354 105.378 30.0846L106.261 31.5237C106.01 31.8181 105.667 32.0852 105.231 32.325C104.805 32.5649 104.326 32.7557 103.792 32.8974C103.268 33.0282 102.739 33.0937 102.205 33.0937Z" fill="white"/>
<path d="M81.5005 32.9301V20.8286H84.068V26.0126L83.5447 26.2088C83.6646 25.8164 83.8772 25.462 84.1825 25.1459C84.4986 24.8188 84.8748 24.5571 85.3108 24.3609C85.7469 24.1647 86.2048 24.0665 86.6845 24.0665C87.3387 24.0665 87.8892 24.2028 88.3362 24.4754C88.7832 24.737 89.1212 25.135 89.3502 25.6692C89.5791 26.1925 89.6936 26.8357 89.6936 27.5989V32.9301H87.0607V27.8115C87.0607 27.4626 87.0116 27.1737 86.9135 26.9447C86.8154 26.7158 86.6627 26.5468 86.4556 26.4378C86.2593 26.3179 86.014 26.2634 85.7197 26.2743C85.4907 26.2743 85.2781 26.3124 85.0819 26.3887C84.8857 26.4541 84.7167 26.5577 84.5749 26.6994C84.4332 26.8303 84.3187 26.9829 84.2315 27.1573C84.1552 27.3318 84.117 27.5226 84.117 27.7297V32.9301H82.8251C82.5199 32.9301 82.2582 32.9301 82.0402 32.9301C81.8221 32.9301 81.6422 32.9301 81.5005 32.9301Z" fill="white"/>
<path d="M76.3993 33.0936C75.5598 33.0936 74.8076 32.8974 74.1425 32.5049C73.4775 32.1124 72.9487 31.5782 72.5563 30.9023C72.1747 30.2154 71.9839 29.4414 71.9839 28.5801C71.9839 27.7188 72.1747 26.9502 72.5563 26.2742C72.9487 25.5874 73.4775 25.0477 74.1425 24.6553C74.8076 24.2628 75.5598 24.0665 76.3993 24.0665C77.1734 24.0665 77.882 24.2028 78.5253 24.4754C79.1794 24.7479 79.6973 25.1295 80.0789 25.6201L78.6561 27.3209C78.5035 27.1464 78.3236 26.9829 78.1164 26.8303C77.9093 26.6776 77.6803 26.5577 77.4296 26.4705C77.1788 26.3833 76.9172 26.3397 76.6446 26.3397C76.2303 26.3397 75.8651 26.4378 75.5489 26.634C75.2328 26.8194 74.9875 27.081 74.813 27.419C74.6386 27.757 74.5514 28.144 74.5514 28.5801C74.5514 28.9944 74.6386 29.3705 74.813 29.7085C74.9984 30.0464 75.2491 30.3136 75.5653 30.5098C75.8815 30.706 76.2412 30.8042 76.6446 30.8042C76.9281 30.8042 77.1897 30.7714 77.4296 30.706C77.6694 30.6297 77.8875 30.5207 78.0837 30.379C78.2909 30.2372 78.4817 30.0628 78.6561 29.8557L80.0625 31.5728C79.6918 32.0416 79.174 32.4122 78.5089 32.6848C77.8548 32.9574 77.1516 33.0936 76.3993 33.0936Z" fill="white"/>
<path d="M65.0142 33.0773C64.2838 33.0773 63.6296 32.8865 63.0518 32.5049C62.4849 32.1124 62.0324 31.5782 61.6945 30.9023C61.3565 30.2154 61.1875 29.4414 61.1875 28.5801C61.1875 27.697 61.3565 26.9175 61.6945 26.2415C62.0324 25.5656 62.4958 25.0368 63.0845 24.6553C63.6732 24.2628 64.3437 24.0665 65.096 24.0665C65.5103 24.0665 65.8864 24.1265 66.2244 24.2464C66.5732 24.3663 66.8785 24.5353 67.1402 24.7534C67.4018 24.9605 67.6253 25.2058 67.8107 25.4893C67.996 25.7618 68.1323 26.0562 68.2195 26.3724L67.6798 26.307V24.2464H70.28V32.9301H67.6308V30.8369L68.2195 30.8205C68.1323 31.1258 67.9905 31.4147 67.7943 31.6872C67.5981 31.9598 67.3582 32.1997 67.0747 32.4068C66.7913 32.6139 66.4751 32.7775 66.1262 32.8974C65.7774 33.0173 65.4067 33.0773 65.0142 33.0773ZM65.7338 30.8696C66.1372 30.8696 66.486 30.7769 66.7804 30.5916C67.0747 30.4062 67.3037 30.1446 67.4672 29.8066C67.6308 29.4577 67.7125 29.0489 67.7125 28.5801C67.7125 28.1113 67.6308 27.7079 67.4672 27.3699C67.3037 27.0211 67.0747 26.7539 66.7804 26.5686C66.486 26.3724 66.1372 26.2742 65.7338 26.2742C65.3413 26.2742 64.9979 26.3724 64.7035 26.5686C64.42 26.7539 64.1965 27.0211 64.033 27.3699C63.8695 27.7079 63.7877 28.1113 63.7877 28.5801C63.7877 29.0489 63.8695 29.4577 64.033 29.8066C64.1965 30.1446 64.42 30.4062 64.7035 30.5916C64.9979 30.7769 65.3413 30.8696 65.7338 30.8696Z" fill="white"/>
<path d="M56.3646 33.0936C55.4052 33.0936 54.5711 32.9029 53.8625 32.5213C53.1538 32.1288 52.6033 31.6 52.2108 30.935C51.8183 30.259 51.6221 29.4904 51.6221 28.6291C51.6221 27.9641 51.7311 27.3536 51.9491 26.7976C52.1672 26.2415 52.4724 25.7618 52.8649 25.3585C53.2574 24.9442 53.7208 24.628 54.255 24.41C54.8001 24.181 55.3943 24.0665 56.0375 24.0665C56.648 24.0665 57.2041 24.1756 57.7056 24.3936C58.218 24.6116 58.6595 24.9169 59.0302 25.3094C59.4009 25.7019 59.6843 26.1652 59.8806 26.6994C60.0768 27.2337 60.164 27.8169 60.1422 28.4493L60.1259 29.1525H53.2084L52.8322 27.6806H57.9999L57.7219 27.9914V27.6643C57.7001 27.3917 57.6129 27.1519 57.4603 26.9447C57.3185 26.7267 57.1277 26.5577 56.8879 26.4378C56.648 26.3179 56.3755 26.2579 56.0702 26.2579C55.645 26.2579 55.2798 26.3451 54.9745 26.5195C54.6802 26.6831 54.4567 26.9284 54.304 27.2555C54.1514 27.5716 54.0751 27.9641 54.0751 28.4329C54.0751 28.9126 54.1732 29.3323 54.3695 29.6921C54.5766 30.041 54.871 30.3136 55.2525 30.5098C55.645 30.706 56.1084 30.8042 56.6426 30.8042C57.0133 30.8042 57.3403 30.7496 57.6238 30.6406C57.9182 30.5316 58.2343 30.3463 58.5723 30.0846L59.7988 31.8181C59.4608 32.1124 59.1011 32.3523 58.7195 32.5376C58.3379 32.723 57.9454 32.8592 57.542 32.9465C57.1495 33.0446 56.7571 33.0936 56.3646 33.0936Z" fill="white"/>
<path d="M41.8369 32.9301V21.4827H46.7757C47.4952 21.4827 48.133 21.6462 48.689 21.9733C49.2559 22.3003 49.7029 22.7473 50.03 23.3143C50.368 23.8812 50.537 24.519 50.537 25.2276C50.537 25.969 50.368 26.634 50.03 27.2227C49.7029 27.8006 49.2559 28.2585 48.689 28.5964C48.133 28.9344 47.4952 29.1034 46.7757 29.1034H44.617V32.9301H41.8369ZM44.5679 26.6667H46.3832C46.623 26.6667 46.8411 26.6068 47.0373 26.4868C47.2336 26.3669 47.3916 26.2034 47.5116 25.9962C47.6315 25.7891 47.6915 25.5492 47.6915 25.2767C47.6915 24.9932 47.6315 24.7534 47.5116 24.5571C47.3916 24.3609 47.2336 24.2082 47.0373 24.0992C46.8411 23.9902 46.623 23.9357 46.3832 23.9357H44.5679V26.6667Z" fill="white"/>
</svg>
